# xmcd
#
# Track frame offsets: 
#        150
#        19161
#        35107
#        53702
#        72164
#        92613
#        115346
#        132407
#        149045
#        166398
#        184439
#        208781
#
# Disc length: 2999 seconds
#
# Revision: 0
# Processed by: cddbd v1.5.2PL0 Copyright (c) Steve Scherf et al.
# Submitted via: ExactAudioCopy v0.95b3
#
DISCID=ba0bb50c
DTITLE=Va  - Butchering The Beatles
DYEAR=1900
DGENRE=
TTITLE0=Butchering the Beatles - Hey Bulldog
TTITLE1=Butchering the Beatles - Back In The Ussr
TTITLE2=Butchering the Beatles - Lucy In The Sky With Diamonds
TTITLE3=Butchering the Beatles - Tomorrow Never Knows
TTITLE4=Butchering the Beatles - Magical Mystery Tour
TTITLE5=Butchering the Beatles - Revolution
TTITLE6=Butchering the Beatles - Day Tripper
TTITLE7=Butchering the Beatles - I Feel Fine
TTITLE8=Butchering the Beatles - Taxman
TTITLE9=Butchering the Beatles - I Saw Her Standing There
TTITLE10=Butchering the Beatles - Hey Jude
TTITLE11=Butchering the Beatles - Drive My Car
EXTD=
EXTT0=
EXTT1=
EXTT2=
EXTT3=
EXTT4=
EXTT5=
EXTT6=
EXTT7=
EXTT8=
EXTT9=
EXTT10=
EXTT11=
PLAYORDER=
